<svg width="233" height="50" viewBox="0 0 233 50" fill="none" xmlns="http://www.w3.org/2000/svg">
<path d="m80.874 7.785c2.1454 0 3.8694-1.7343 3.8694-3.8925s-1.724-3.8925-3.8694-3.8925c-2.1455 0-3.8695 1.7343-3.8695 3.8925s1.724 3.8925 3.8695 3.8925zm3.448 19.963v-18.615h-6.8961v18.615h6.8961z" fill="#fff"/>
<path d="m107.59 27.748v-13.219c0-3.2373-1.877-5.858-6.168-5.858-3.2565 0-5.287 1.3489-6.3598 2.5821v-2.1196h-6.896v18.615h6.896v-11.485c0.5747-0.6552 1.3793-1.4645 2.95-1.4645 1.6474 0 2.6818 0.7322 2.6818 2.6592v10.29h6.896z" fill="#fff"/>
<path d="m119.21 28.211c2.337 0 3.946-0.5781 4.674-1.2333l-1.226-5.2413c-0.153 0.1541-0.766 0.3468-1.379 0.3468-0.92 0-1.533-0.7708-1.533-1.7343v-5.2028h3.755v-6.0122h-3.755v-5.0872h-6.896v5.0872h-3.065v6.0122h3.065v7.2069c0 3.8925 2.26 5.858 6.36 5.858z" fill="#fff"/>
<path d="m135.11 28.211c2.758 0 6.053-0.7323 7.892-2.3124l-2.835-4.2779c-0.92 0.8094-3.218 1.3104-4.253 1.3104-2.26 0-3.601-1.1562-3.984-2.3509h12.566v-1.426c0-6.5517-4.176-10.483-9.616-10.483-5.977 0-10.076 4.3549-10.076 9.7505 0 6.1277 4.521 9.789 10.306 9.789zm2.835-12.024h-6.092c0.23-0.8479 0.92-2.2353 3.027-2.2353 2.222 0 2.873 1.4259 3.065 2.2353z" fill="#fff"/>
<path d="m153.76 27.748v-11.408c0.767-0.9249 2.644-1.3103 4.1-1.3103 0.651 0 1.226 0.0771 1.57 0.1927v-6.6288c-2.107 0-4.52 1.2333-5.67 2.5821v-2.0426h-6.896v18.615h6.896z" fill="#fff"/>
<path d="m173.9 28.211c4.597 0 8.122-3.3915 8.122-9.789 0-6.359-3.525-9.7505-8.122-9.7505-1.916 0-3.716 0.65517-5.211 2.428v-1.9656h-6.896v25.706h6.896v-9.0568c1.533 1.7728 3.295 2.428 5.211 2.428zm-2.376-6.1278c-0.881 0-2.222-0.501-2.835-1.2718v-4.7403c0.652-0.8094 1.954-1.2718 2.835-1.2718 1.839 0 3.448 1.3103 3.448 3.6227 0 2.3509-1.609 3.6612-3.448 3.6612z" fill="#fff"/>
<path d="m202.16 27.748v-11.254c0-6.2049-4.482-7.8235-9.08-7.8235-2.796 0-6.244 0.80933-8.735 2.8134l2.337 4.2778c1.456-1.1176 3.41-1.8113 5.134-1.8113 2.26 0 3.448 1.002 3.448 2.3124v1.9269c-0.996-1.2718-3.18-2.0426-5.593-2.0426-2.759 0-6.36 1.3104-6.36 5.9351 0 4.2394 3.601 6.1278 6.36 6.1278 2.298 0 4.559-0.925 5.593-2.2353v1.7728h6.896zm-9.616-4.0466c-1.149 0-2.414-0.3469-2.414-1.5031s1.265-1.5415 2.414-1.5415c1.073 0 2.26 0.3468 2.72 1.002v1.0405c-0.46 0.6552-1.647 1.0021-2.72 1.0021z" fill="#fff"/>
<path d="m212.88 27.748v-25.706h-6.896v25.706h6.896z" fill="#fff"/>
<path d="m224.23 28.211c5.478 0 8.773-2.6978 8.773-6.3976 0-7.7464-10.497-5.8194-10.497-7.361 0-0.4239 0.728-0.8093 1.724-0.8093 2.145 0 4.291 0.9635 5.44 1.9269l2.528-4.5091c-2.145-1.4259-4.903-2.3894-8.007-2.3894-5.363 0-8.275 3.0061-8.275 6.359 0 7.7079 10.497 5.4341 10.497 7.2069 0 0.4624-0.421 0.8093-1.839 0.8093-2.068 0-5.21-1.1947-6.666-2.3509l-2.758 4.6633c1.992 1.6572 5.67 2.8519 9.08 2.8519z" fill="#fff"/>
<path d="m37.541 0.22041c-13.577 0-24.583 11.144-24.583 24.89 0 13.746 11.006 24.89 24.583 24.89 4.8096 0 9.2966-1.3984 13.086-3.8156 0.5401 0.2115 1.0667 0.4254 1.604 0.6437 2.0228 0.8216 4.1973 1.705 7.81 2.75l-2.8784-9.4711c3.1145-4.1706 4.9617-9.3653 4.9617-14.997 0-13.746-11.006-24.89-24.583-24.89zm13.573 28.58c0.2237 0.8951-0.9841 1.1583-2.3249 1.4505-1.1611 0.253-2.422 0.5277-2.9396 1.2534-1.116 1.5628-3.8427 0.5127-4.475 0.2123-0.1998-0.095-0.5781-0.0599-0.9956-0.0213-0.904 0.0837-1.9913 0.1843-1.8465-0.98 0.1654-1.3388 1.1117-1.6867 2.2766-2.1149 0.3166-0.1164 0.6493-0.2387 0.9868-0.3885 1.5792-0.7 3.857-3.0279 2.7377-3.3321-5.2697-1.4311-7.0674-6.4432-7.0674-6.4432-0.102-0.0194-0.1628-0.3948-0.2443-0.8979-0.1712-1.0569-0.4338-2.6775-1.3607-2.7452-0.5361-0.0393-0.9753 0.0135-1.4313 0.0683-0.7089 0.0852-1.4584 0.1754-2.6754-0.0683-1.5915-0.3185-1.6503-1.2071-1.7668-2.9683-0.03-0.4531-0.0638-0.9639-0.1285-1.5376-0.2147-1.9088 0.2538-2.1004 0.7721-2.3124 0.2431-0.09942 0.4971-0.20334 0.6969-0.49088 0.0516-0.0746 0.1179-0.14158 0.1837-0.20813l0.0118-0.01196c-7.3269 2.5399-12.612 9.5781-12.612 17.846l1e-4 0.0085 3e-4 0.0112c2e-4 0.0064 4e-4 0.0131 4e-4 0.0196 1.3617 0.0889 3.8415 0.38 3.9581 1.3258 0.0325 0.2629 0.0518 0.539 0.0713 0.8163 0.0773 1.1008 0.1559 2.2214 1.0577 2.6126 0.5685 0.2466 0.9325-0.2521 1.2774-0.7245 0.34-0.4658 0.6614-0.906 1.1417-0.5817 0.2967 0.2003 0.745 0.3983 1.2242 0.6099 1.0833 0.4784 2.3238 1.0263 2.3238 1.827 0 0.392-0.0558 0.858-0.1105 1.3154-0.1065 0.8898-0.209 1.7468 0.1105 1.9626 0.4838 0.3266 2.4178 2.6124 2.4183 2.939 3e-4 0.108 0.0749 0.362 0.1674 0.6766 0.1871 0.6365 0.4471 1.5208 0.3112 1.9456-0.1684 0.5263-1.0181 2.1607-1.8418 2.9038 2.03 0.7701 4.226 1.1939 6.5185 1.1939 10.272 0 18.629-8.4613 18.629-18.862 0-3.08-0.7379-5.9879-2.0365-8.5585 0.0339 0.5221 0.0524 1.0316 0.0696 1.5082 0.0462 1.2744 0.0839 2.3137 0.3858 2.7305 0.887 1.2228-0.1484 2.2592-1.3289 3.4409-1.2358 1.2369-2.6307 2.6331-2.146 4.5691z" clip-rule="evenodd" fill="#fff" fill-rule="evenodd"/>
<path d="m14.997 5.8098c-5.2733 1.2475-9.7209 4.6686-12.371 9.2793-1.7509 2.8065-2.6263 6.0171-2.6263 9.6319 0 0.0541 2.2351e-4 0.1082 6.7053e-4 0.1623l-1.986e-4 0.0899c0 4.2181 1.3108 8.1264 3.5425 11.33 0.00297 0.0469 0.00445 0.0939 0.00445 0.1408l-2.6218 8.206 8.1963-2.8656c0.04557-0.0156 0.09012-0.0305 0.13364-0.0447 1.7462 1.0893 3.6754 1.9068 5.73 2.3943-4.7193-5.1136-7.5805-11.817-7.5805-19.156 0-7.3449 2.8659-14.053 7.5923-19.168z" clip-rule="evenodd" fill="#fff" fill-rule="evenodd"/>
<path d="m77.764 40.413h1.5228v1.3035h0.1177c0.3727-0.9733 1.1158-1.4599 2.2291-1.4599 1.0838 0 1.8195 0.4866 2.2069 1.4599h0.1251c0.206-0.4469 0.5248-0.802 0.9564-1.0651 0.4365-0.2632 0.9293-0.3948 1.4786-0.3948 0.8093 0 1.4395 0.2359 1.8907 0.7076 0.4463 0.4717 0.6694 1.1296 0.6694 1.9738v5.5862h-1.5816v-5.1691c0-1.0875-0.5174-1.6312-1.5523-1.6312-0.5051 0-0.9146 0.1639-1.2285 0.4916-0.309 0.3178-0.4635 0.72-0.4635 1.2066v5.1021h-1.5522v-5.3255c0-0.4569-0.1398-0.8169-0.4194-1.08-0.2795-0.2632-0.6547-0.3948-1.1255-0.3948-0.4807 0-0.8828 0.1763-1.2065 0.5288-0.3237 0.3526-0.4855 0.7896-0.4855 1.3109v4.9606h-1.5817v-8.1112z" fill="#fff"/>
<path d="m94.471 41.62c-0.5836 0-1.0642 0.1912-1.4419 0.5736-0.3776 0.3823-0.5885 0.8913-0.6326 1.5269h4.0461c-0.0196-0.6406-0.206-1.1496-0.5591-1.5269-0.358-0.3824-0.8289-0.5736-1.4125-0.5736zm3.4871 4.7148c-0.1815 0.73-0.5763 1.3035-1.1845 1.7206-0.613 0.4171-1.3756 0.6256-2.2879 0.6256-1.1476 0-2.05-0.3749-2.7072-1.1247-0.6621-0.7448-0.9931-1.7652-0.9931-3.0612s0.3335-2.3264 1.0005-3.0911 1.5645-1.147 2.6925-1.147c1.1133 0 1.9887 0.3625 2.6263 1.0874 0.6327 0.725 0.949 1.7256 0.949 3.0017v0.5586h-5.6572v0.0894c0.0245 0.7151 0.228 1.2811 0.6106 1.6982 0.3825 0.4171 0.8901 0.6257 1.5228 0.6257 0.9661 0 1.6013-0.3277 1.9053-0.9832h1.5229z" fill="#fff"/>
<path d="m103.24 41.62c-0.584 0-1.065 0.1912-1.442 0.5736-0.378 0.3823-0.589 0.8913-0.633 1.5269h4.046c-0.019-0.6406-0.206-1.1496-0.559-1.5269-0.358-0.3824-0.829-0.5736-1.412-0.5736zm3.487 4.7148c-0.182 0.73-0.577 1.3035-1.185 1.7206-0.613 0.4171-1.375 0.6256-2.288 0.6256-1.147 0-2.05-0.3749-2.707-1.1247-0.6619-0.7448-0.993-1.7652-0.993-3.0612s0.3335-2.3264 1.001-3.0911c0.667-0.7647 1.564-1.147 2.692-1.147 1.113 0 1.989 0.3625 2.626 1.0874 0.633 0.725 0.949 1.7256 0.949 3.0017v0.5586h-5.657v0.0894c0.025 0.7151 0.228 1.2811 0.611 1.6982 0.382 0.4171 0.89 0.6257 1.523 0.6257 0.966 0 1.601-0.3277 1.905-0.9832h1.523z" fill="#fff"/>
<path d="m110.86 38.447v2.0035h1.795v1.3482h-1.795v4.1711c0 0.422 0.091 0.7324 0.272 0.931 0.182 0.1937 0.469 0.2905 0.861 0.2905 0.147 0 0.343-0.0124 0.589-0.0373v1.3333c-0.305 0.0546-0.587 0.0819-0.846 0.0819-0.878 0-1.509-0.1688-1.891-0.5065-0.378-0.3376-0.567-0.8987-0.567-1.6833v-4.5807h-1.316v-1.3482h1.316v-2.0035h1.582z" fill="#fff"/>
<path d="m120.72 38.447v2.0035h1.795v1.3482h-1.795v4.1711c0 0.422 0.091 0.7324 0.272 0.931 0.182 0.1937 0.469 0.2905 0.861 0.2905 0.147 0 0.343-0.0124 0.588-0.0373v1.3333c-0.304 0.0546-0.586 0.0819-0.846 0.0819-0.877 0-1.508-0.1688-1.89-0.5065-0.378-0.3376-0.567-0.8987-0.567-1.6833v-4.5807h-1.317v-1.3482h1.317v-2.0035h1.582z" fill="#fff"/>
<path d="m124.39 37.248h1.567v4.469h0.125c0.196-0.4569 0.515-0.8119 0.956-1.0651 0.442-0.2583 0.964-0.3874 1.567-0.3874 0.903 0 1.599 0.2632 2.09 0.7896 0.495 0.5263 0.743 1.2711 0.743 2.2345v5.2361h-1.582v-4.8414c0-1.301-0.596-1.9514-1.788-1.9514-0.642 0-1.152 0.1887-1.53 0.566-0.378 0.3724-0.566 0.869-0.566 1.4897v4.7371h-1.582v-11.277z" fill="#fff"/>
<path d="m136.96 41.62c-0.583 0-1.064 0.1912-1.442 0.5736-0.377 0.3823-0.588 0.8913-0.632 1.5269h4.046c-0.02-0.6406-0.206-1.1496-0.559-1.5269-0.358-0.3824-0.829-0.5736-1.413-0.5736zm3.487 4.7148c-0.181 0.73-0.576 1.3035-1.184 1.7206-0.613 0.4171-1.376 0.6256-2.288 0.6256-1.148 0-2.05-0.3749-2.707-1.1247-0.662-0.7448-0.993-1.7652-0.993-3.0612s0.333-2.3264 1-3.0911 1.565-1.147 2.693-1.147c1.113 0 1.988 0.3625 2.626 1.0874 0.633 0.725 0.949 1.7256 0.949 3.0017v0.5586h-5.657v0.0894c0.024 0.7151 0.228 1.2811 0.61 1.6982 0.383 0.4171 0.891 0.6257 1.523 0.6257 0.966 0 1.601-0.3277 1.906-0.9832h1.522z" fill="#fff"/>
<path d="m154.8 48.524h-1.641l-1.655-5.9735h-0.125l-1.648 5.9735h-1.626l-2.207-8.1112h1.604l1.435 6.1896h0.117l1.648-6.1896h1.516l1.647 6.1896h0.125l1.428-6.1896h1.581l-2.199 8.1112z" fill="#fff"/>
<path d="m161.7 47.258c0.681 0 1.211-0.2458 1.589-0.7374 0.372-0.4866 0.559-1.1718 0.559-2.0557 0-0.8789-0.187-1.5642-0.559-2.0557-0.378-0.4867-0.908-0.73-1.589-0.73-0.687 0-1.217 0.2433-1.589 0.73-0.373 0.4866-0.56 1.1718-0.56 2.0557 0 0.8888 0.187 1.5766 0.56 2.0632 0.372 0.4866 0.902 0.7299 1.589 0.7299zm0 1.4226c-1.177 0-2.102-0.3749-2.774-1.1247s-1.008-1.7801-1.008-3.091c0-1.3059 0.339-2.3338 1.015-3.0836 0.672-0.7498 1.594-1.1247 2.767-1.1247 1.167 0 2.086 0.3749 2.758 1.1247 0.677 0.7498 1.015 1.7777 1.015 3.0836 0 1.3109-0.335 2.3412-1.007 3.091s-1.594 1.1247-2.766 1.1247z" fill="#fff"/>
<path d="m167.38 40.413h1.523v1.2439h0.117c0.113-0.4022 0.371-0.7324 0.773-0.9906 0.402-0.2583 0.863-0.3874 1.383-0.3874 0.299 0 0.532 0.0224 0.699 0.0671v1.579c-0.182-0.0645-0.474-0.0968-0.876-0.0968-0.598 0-1.086 0.1763-1.464 0.5288-0.382 0.3526-0.573 0.8119-0.573 1.378v4.7892h-1.582v-8.1112z" fill="#fff"/>
<path d="m173.4 37.248h1.581v11.277h-1.581v-11.277z" fill="#fff"/>
<path d="m180.28 48.659c-1.02 0-1.829-0.3774-2.427-1.1321-0.599-0.7548-0.898-1.7752-0.898-3.0613 0-1.2811 0.302-2.2991 0.905-3.0538 0.598-0.7548 1.405-1.1322 2.42-1.1322 0.55 0 1.043 0.1242 1.479 0.3725 0.436 0.2532 0.763 0.6033 0.978 1.0502h0.118v-4.4541h1.582v11.277h-1.516v-1.2811h-0.125c-0.51 0.9435-1.348 1.4152-2.516 1.4152zm0.449-6.9418c-0.667 0-1.189 0.2458-1.567 0.7373-0.382 0.4867-0.574 1.157-0.574 2.0111 0 0.859 0.189 1.5343 0.567 2.0259 0.382 0.4867 0.907 0.73 1.574 0.73s1.192-0.2458 1.574-0.7374c0.388-0.4916 0.582-1.1619 0.582-2.0111 0-0.8441-0.194-1.5144-0.582-2.011-0.387-0.4966-0.912-0.7448-1.574-0.7448z" fill="#fff"/>
</svg>


